<svg xmlns="http://www.w3.org/2000/svg" viewBox="0 0 387.78 279.3"><defs><style>.cls-1{fill:#d5d5d5;}.cls-2{fill:#136567;}.cls-11,.cls-17,.cls-18,.cls-20,.cls-3,.cls-4,.cls-7,.cls-8,.cls-9{fill:#fff;}.cls-12,.cls-13,.cls-15,.cls-17,.cls-20,.cls-21,.cls-22,.cls-3,.cls-4,.cls-6,.cls-8,.cls-9{isolation:isolate;}.cls-10,.cls-15,.cls-18,.cls-3{opacity:0.2;}.cls-13,.cls-4{opacity:0.3;}.cls-5{fill:#263238;}.cls-6,.cls-8{opacity:0.6;}.cls-21,.cls-9{opacity:0.1;}.cls-11{opacity:0.7;}.cls-14{fill:#b67d77;}.cls-16{fill:#b57c76;}.cls-17,.cls-22{opacity:0.4;}.cls-19{fill:#ab6d6c;}.cls-20{opacity:0.5;}</style></defs><g id="Shadow"><ellipse id="_Path_" data-name="&lt;Path&gt;" class="cls-1" cx="193.89" cy="267.98" rx="193.89" ry="11.32"/></g><g id="Plant"><path class="cls-2" d="M382.05,372.62s-7.76-9.22-12.72-4.92-2.45,13.43,3.27,13.73a14.38,14.38,0,0,0,9.45-2.89Z" transform="translate(-56.11 -148.26)"/><path class="cls-3" d="M382.05,372.62s-7.76-9.22-12.72-4.92-2.45,13.43,3.27,13.73a14.38,14.38,0,0,0,9.45-2.89Z" transform="translate(-56.11 -148.26)"/><path class="cls-2" d="M413.68,349.22s6.51-6.82,10.54-5.66,3.62,17.45-8.89,10.85Z" transform="translate(-56.11 -148.26)"/><path class="cls-4" d="M413.68,349.22s6.51-6.82,10.54-5.66,3.62,17.45-8.89,10.85Z" transform="translate(-56.11 -148.26)"/><path class="cls-2" d="M390.42,400.11s-21.4-29.27-4-35.2,20.47,23.55,15.51,31.76S390.42,400.11,390.42,400.11Z" transform="translate(-56.11 -148.26)"/><path class="cls-2" d="M400.34,340.18s13.28-30.82-6.38-31.75-21.81,30.56.82,35.13Z" transform="translate(-56.11 -148.26)"/><path class="cls-4" d="M390.42,400.11s-21.4-29.27-4-35.2,20.47,23.55,15.51,31.76S390.42,400.11,390.42,400.11Z" transform="translate(-56.11 -148.26)"/><path class="cls-4" d="M400.34,340.18s13.28-30.82-6.38-31.75-21.81,30.56.82,35.13Z" transform="translate(-56.11 -148.26)"/><path class="cls-2" d="M395.63,365.41s-6.45-27.21,6-29.38,24.65,22.42-1,34.78C400.57,370.81,396.17,368.08,395.63,365.41Z" transform="translate(-56.11 -148.26)"/><path class="cls-3" d="M395.63,365.41s-6.45-27.21,6-29.38,24.65,22.42-1,34.78C400.57,370.81,396.17,368.08,395.63,365.41Z" transform="translate(-56.11 -148.26)"/><polygon class="cls-5" points="318.91 247.7 354.83 247.7 351.83 270.69 321.91 270.69 318.91 247.7"/><path class="cls-2" d="M393.7,338a25.52,25.52,0,0,1-5-4.88,24.73,24.73,0,0,1-3.52-6.08,18.32,18.32,0,0,1-1.28-6.93,16.48,16.48,0,0,1,1.61-6.79c-.13.57-.25,1.14-.39,1.69l-.21.84c0,.28-.05.57-.08.85-.06.57-.15,1.13-.2,1.7l0,1.7a21.2,21.2,0,0,0,1.44,6.57,31.4,31.4,0,0,0,3.21,6,30.29,30.29,0,0,0,2.06,2.75C392.12,336.3,392.9,337.14,393.7,338Z" transform="translate(-56.11 -148.26)"/><path class="cls-2" d="M389,311.53a12.52,12.52,0,0,1,3.22,1.1,14.71,14.71,0,0,1,2.84,1.94,15,15,0,0,1,4,5.59,20,20,0,0,1,1.38,6.72c0,1.14-.07,2.27-.12,3.4s-.35,2.24-.58,3.35c0-1.14.07-2.26.1-3.37s-.06-2.23-.17-3.33a27.06,27.06,0,0,0-.56-3.26c-.14-.53-.23-1.07-.4-1.59l-.57-1.54A16.21,16.21,0,0,0,389,311.53Z" transform="translate(-56.11 -148.26)"/><path class="cls-2" d="M404,338a11.72,11.72,0,0,1,6.52,6.25,14.66,14.66,0,0,1,1.22,4.5,6.67,6.67,0,0,1,.06,1.18,9.41,9.41,0,0,1,0,1.19,12.89,12.89,0,0,1-.47,2.32,19.57,19.57,0,0,1-1.88,4.26,30.2,30.2,0,0,1-2.7,3.75,37.61,37.61,0,0,1-6.65,6.27c1.1-1.06,2.17-2.13,3.16-3.27a43.33,43.33,0,0,0,2.89-3.48,24.83,24.83,0,0,0,4.22-7.81,12,12,0,0,0,.46-2.14,9.66,9.66,0,0,0,0-1.08,6.67,6.67,0,0,0,0-1.09,15.19,15.19,0,0,0-1-4.3,12.41,12.41,0,0,0-2.3-3.77A11.61,11.61,0,0,0,404,338Z" transform="translate(-56.11 -148.26)"/><path class="cls-2" d="M400.34,340.18a24.45,24.45,0,0,1,1.38,6.23,15.36,15.36,0,0,1,0,3.25,7.85,7.85,0,0,1-1,3.19,12,12,0,0,0-1.81,5.76,27.22,27.22,0,0,0-.15,3.13c0,1.06,0,2.11.07,3.17a24.11,24.11,0,0,1-.69-6.35,15.42,15.42,0,0,1,.4-3.22,10.16,10.16,0,0,1,.54-1.58,11.48,11.48,0,0,1,.79-1.44,6.88,6.88,0,0,0,.93-2.79,18.54,18.54,0,0,0,.2-3.08,29.89,29.89,0,0,0-.2-3.13C400.67,342.27,400.51,341.23,400.34,340.18Z" transform="translate(-56.11 -148.26)"/><path class="cls-2" d="M391.62,367.7a3,3,0,0,1,1.33,1,11.18,11.18,0,0,1,1,1.4,25.52,25.52,0,0,1,1.34,3.09,49.24,49.24,0,0,1,1.78,6.47c.45,2.19.81,4.39,1.05,6.61a43.79,43.79,0,0,1,.35,6.68c-.15-1.11-.32-2.2-.53-3.29s-.37-2.19-.58-3.28c-.41-2.18-.81-4.35-1.27-6.51s-.95-4.32-1.53-6.44a26,26,0,0,0-1-3.12,11,11,0,0,0-.73-1.46A3.22,3.22,0,0,0,391.62,367.7Z" transform="translate(-56.11 -148.26)"/><path class="cls-2" d="M385.54,368.65a28,28,0,0,0-1,6.06,23.08,23.08,0,0,0,.44,6.05,20.09,20.09,0,0,0,2,5.7,29.39,29.39,0,0,0,3.43,5.1l-1.15-1.06a10.58,10.58,0,0,1-1.1-1.12,16.56,16.56,0,0,1-1.86-2.54,17.11,17.11,0,0,1-1.44-2.83c-.2-.49-.32-1-.49-1.51A10.22,10.22,0,0,1,384,381a19.46,19.46,0,0,1-.24-6.32A18.54,18.54,0,0,1,385.54,368.65Z" transform="translate(-56.11 -148.26)"/><path class="cls-2" d="M418.73,352.54a24.26,24.26,0,0,0,3.18-1,7.46,7.46,0,0,0,1.39-.75,11,11,0,0,0,1.31-1.07,3.13,3.13,0,0,1-.78,1.65,4.3,4.3,0,0,1-1.52,1.09,5.16,5.16,0,0,1-1.8.4A4.06,4.06,0,0,1,418.73,352.54Z" transform="translate(-56.11 -148.26)"/><path class="cls-2" d="M417.4,348.05a4.21,4.21,0,0,1,1.18-1.4,4.82,4.82,0,0,1,1.66-.88,3.75,3.75,0,0,1,1.94,0,2.74,2.74,0,0,1,1.5,1.13,6.26,6.26,0,0,0-1.63-.36,5.28,5.28,0,0,0-1.53.21,11.08,11.08,0,0,0-1.53.58Z" transform="translate(-56.11 -148.26)"/><path class="cls-2" d="M378.51,374a35.08,35.08,0,0,0-3.95-2.84,5.37,5.37,0,0,0-2.11-.79,4.07,4.07,0,0,0-2.26.44,3,3,0,0,1,2.29-1.22,4.64,4.64,0,0,1,2.57.7,8.62,8.62,0,0,1,2,1.62A8.19,8.19,0,0,1,378.51,374Z" transform="translate(-56.11 -148.26)"/><path class="cls-2" d="M378.51,378.54a10.82,10.82,0,0,1-2.92.64,11.71,11.71,0,0,1-3-.09,6.35,6.35,0,0,1-2.87-1.16,3.35,3.35,0,0,1-1.4-2.67,4.12,4.12,0,0,0,1.83,2,8.14,8.14,0,0,0,2.61.83A50.61,50.61,0,0,0,378.51,378.54Z" transform="translate(-56.11 -148.26)"/></g><g id="Trash_bin" data-name="Trash bin"><path class="cls-2" d="M315.65,399a2.4,2.4,0,0,0-1.92-3.45,5.13,5.13,0,0,0-1.63-5.61,1.16,1.16,0,0,0-.71-.32,1.35,1.35,0,0,0-.76.34l-4.49,3.23a2.71,2.71,0,0,0-.9.88c-.92,1.78,2.4,4.06,1,5.53-.39.43-1,.51-1.51.82-1.07.67-1.2,2.14-1.7,3.3s-2.24,2.05-2.91,1c.5-1.11-1-2.07-2.2-2.21s-2.47-.21-3.13-1.34c-1.72,1.5-5.55-2.68-5.47-4.36a3.29,3.29,0,0,0-2.67,2.74,20.29,20.29,0,0,0-.15,4.2c0,2.73-.92,5.4-.87,8.13,0,2.12.86,4.47,2.8,5.33a7.26,7.26,0,0,0,3,.4l22.13-.14a3.3,3.3,0,0,0,1.56-.26c1-.52,1.21-1.83,1.3-2.95q.58-7.21,1.19-14.42Z" transform="translate(-56.11 -148.26)"/><path class="cls-4" d="M315.65,399a2.4,2.4,0,0,0-1.92-3.45,5.13,5.13,0,0,0-1.63-5.61,1.16,1.16,0,0,0-.71-.32,1.35,1.35,0,0,0-.76.34l-4.49,3.23a2.71,2.71,0,0,0-.9.88c-.92,1.78,2.4,4.06,1,5.53-.39.43-1,.51-1.51.82-1.07.67-1.2,2.14-1.7,3.3s-2.24,2.05-2.91,1c.5-1.11-1-2.07-2.2-2.21s-2.47-.21-3.13-1.34c-1.72,1.5-5.55-2.68-5.47-4.36a3.29,3.29,0,0,0-2.67,2.74,20.29,20.29,0,0,0-.15,4.2c0,2.73-.92,5.4-.87,8.13,0,2.12.86,4.47,2.8,5.33a7.26,7.26,0,0,0,3,.4l22.13-.14a3.3,3.3,0,0,0,1.56-.26c1-.52,1.21-1.83,1.3-2.95q.58-7.21,1.19-14.42Z" transform="translate(-56.11 -148.26)"/><path class="cls-2" d="M317,375.56H282.61l.28,3.47.21,2.48.52,6.44.3,3.71.39,4.92.17,2.12.06.63.2,2.48.28,3.41.17,2.11.17,2.15.2,2.48.16,1.88.17,2.11.07.92h31.51l.07-.92.17-2.1.16-1.9.2-2.48.17-2.14.17-2.11.28-3.42.2-2.47.05-.63.17-2.12.4-4.92.3-3.7.52-6.45.2-2.48.28-3.47Zm2.06,2.28h0l-.66-.67h.72Zm-.17,2.1-.06.84-3.08,3.07-3.52-3.52,3.15-3.16h.74Zm-.89,11-2.25,2.25-3.52-3.53,3.52-3.51,2.44,2.43Zm-32.67-2.36h0l2.44-2.43,3.52,3.51-3.52,3.53-2.24-2.25ZM314.57,385,311,388.52,307.52,385l3.52-3.52ZM309,377.17h4l-2,2Zm.88,12.48-3.52,3.53-3.53-3.53,3.53-3.51Zm-11.71,4.67,3.53-3.52,3.51,3.52-3.51,3.52Zm2.38,4.66L297,402.51,293.53,399l3.52-3.53Zm5.81-3.52L309.9,399l-3.52,3.52L302.85,399Zm-4.66-6.94L298.19,385l3.53-3.52,3.51,3.52Zm-1.15,1.13-3.52,3.53-3.52-3.53,3.52-3.51Zm-8.19-1.13L288.86,385l3.52-3.52,3.53,3.52Zm0,2.28,3.53,3.52-3.53,3.52-3.52-3.52Zm3.53,12.85-3.53,3.52-3.52-3.52,3.52-3.52Zm1.13,1.14,3.53,3.52-3.52,3.53-3.52-3.53Zm1.15-1.14,3.53-3.52,3.51,3.52-3.51,3.52Zm8.19,1.14,3.52,3.52-3.52,3.53-3.53-3.53Zm4.66,4.66,3.53,3.53-2.29,2.28H309.8L307.52,413Zm-3.52-5.8,3.52-3.52,3.53,3.52L311,407.17Zm0-9.33L311,390.8l3.53,3.52L311,397.84Zm2.38-14-3.52,3.52-3.53-3.52,3.16-3.16h.74Zm-8.18-1.14-2-2h4Zm-1.15,1.14-3.52,3.52-3.52-3.52,3.15-3.16h.74Zm-6.17-3.16-2,2-2-2Zm-6.31,0,3.15,3.16-3.52,3.52-3.07-3.07-.06-.84,2.76-2.77Zm-3,0-.65.66h0l-.06-.66Zm-.22,6.1,1.73,1.72-1.47,1.47Zm1,11.81-.13-1.67h0l.9.91-.77.76Zm.17,2.13,1.74-1.75,3.52,3.53-3.52,3.52-1.42-1.42Zm.53,6.51v-.15l.08.08-.07.07Zm.61,7.51-.44-5.4,1-1,3.52,3.52-3.52,3.52-.6-.6Zm.32,4-.06-.81.34-.34,1.14,1.15Zm1.42-2.28,3.52-3.53,3.53,3.53-2.29,2.28h-2.48Zm7.05,2.28,1.14-1.15,1.15,1.15Zm4.56,0L298.19,413l3.53-3.53,3.51,3.53L303,415.26Zm4.76,0,1.15-1.15,1.14,1.15Zm10.75,0h-1.42l1.14-1.15.34.34Zm.33-4-.61.6-3.52-3.52,3.52-3.52,1,1Zm.62-7.67,0,.16-.07-.07.09-.09Zm.2-2.47-1.43,1.42L312.18,399l3.52-3.53,1.75,1.75Zm.49-6-.78-.77.91-.91Zm1-11.83-.26,3.21L316.84,385l1.74-1.73Z" transform="translate(-56.11 -148.26)"/><g class="cls-6"><path class="cls-7" d="M317,375.56H282.61l.28,3.47.21,2.48.52,6.44.3,3.71.39,4.92.17,2.12.06.63.2,2.48.28,3.41.17,2.11.17,2.15.2,2.48.16,1.88.17,2.11.07.92h31.51l.07-.92.17-2.1.16-1.9.2-2.48.17-2.14.17-2.11.28-3.42.2-2.47.05-.63.17-2.12.4-4.92.3-3.7.52-6.45.2-2.48.28-3.47Zm2.06,2.28h0l-.66-.67h.72Zm-.17,2.1-.06.84-3.08,3.07-3.52-3.52,3.15-3.16h.74Zm-.89,11-2.25,2.25-3.52-3.53,3.52-3.51,2.44,2.43Zm-32.67-2.36h0l2.44-2.43,3.52,3.51-3.52,3.53-2.24-2.25ZM314.57,385,311,388.52,307.52,385l3.52-3.52ZM309,377.17h4l-2,2Zm.88,12.48-3.52,3.53-3.53-3.53,3.53-3.51Zm-11.71,4.67,3.53-3.52,3.51,3.52-3.51,3.52Zm2.38,4.66L297,402.51,293.53,399l3.52-3.53Zm5.81-3.52L309.9,399l-3.52,3.52L302.85,399Zm-4.66-6.94L298.19,385l3.53-3.52,3.51,3.52Zm-1.15,1.13-3.52,3.53-3.52-3.53,3.52-3.51Zm-8.19-1.13L288.86,385l3.52-3.52,3.53,3.52Zm0,2.28,3.53,3.52-3.53,3.52-3.52-3.52Zm3.53,12.85-3.53,3.52-3.52-3.52,3.52-3.52Zm1.13,1.14,3.53,3.52-3.52,3.53-3.52-3.53Zm1.15-1.14,3.53-3.52,3.51,3.52-3.51,3.52Zm8.19,1.14,3.52,3.52-3.52,3.53-3.53-3.53Zm4.66,4.66,3.53,3.53-2.29,2.28H309.8L307.52,413Zm-3.52-5.8,3.52-3.52,3.53,3.52L311,407.17Zm0-9.33L311,390.8l3.53,3.52L311,397.84Zm2.38-14-3.52,3.52-3.53-3.52,3.16-3.16h.74Zm-8.18-1.14-2-2h4Zm-1.15,1.14-3.52,3.52-3.52-3.52,3.15-3.16h.74Zm-6.17-3.16-2,2-2-2Zm-6.31,0,3.15,3.16-3.52,3.52-3.07-3.07-.06-.84,2.76-2.77Zm-3,0-.65.66h0l-.06-.66Zm-.22,6.1,1.73,1.72-1.47,1.47Zm1,11.81-.13-1.67h0l.9.91-.77.76Zm.17,2.13,1.74-1.75,3.52,3.53-3.52,3.52-1.42-1.42Zm.53,6.51v-.15l.08.08-.07.07Zm.61,7.51-.44-5.4,1-1,3.52,3.52-3.52,3.52-.6-.6Zm.32,4-.06-.81.34-.34,1.14,1.15Zm1.42-2.28,3.52-3.53,3.53,3.53-2.29,2.28h-2.48Zm7.05,2.28,1.14-1.15,1.15,1.15Zm4.56,0L298.19,413l3.53-3.53,3.51,3.53L303,415.26Zm4.76,0,1.15-1.15,1.14,1.15Zm10.75,0h-1.42l1.14-1.15.34.34Zm.33-4-.61.6-3.52-3.52,3.52-3.52,1,1Zm.62-7.67,0,.16-.07-.07.09-.09Zm.2-2.47-1.43,1.42L312.18,399l3.52-3.53,1.75,1.75Zm.49-6-.78-.77.91-.91Zm1-11.83-.26,3.21L316.84,385l1.74-1.73Z" transform="translate(-56.11 -148.26)"/></g><rect class="cls-2" x="280.41" y="374.12" width="42.6" height="4.49" rx="1.64" transform="translate(547.31 604.47) rotate(180)"/><rect class="cls-2" x="227.37" y="266.2" width="36.45" height="4.49" rx="1.64"/></g><g id="Interface"><rect class="cls-2" x="177.78" y="0.36" width="199.65" height="135.93"/><rect class="cls-8" x="177.78" y="0.36" width="199.65" height="135.93"/><path class="cls-9" d="M362.44,148.62S305,202.4,233.89,203.68V148.62Z" transform="translate(-56.11 -148.26)"/><path class="cls-9" d="M433.53,219.58s-39.45-4.11-78.48,18.56-78,44-121.16,34v12.4H433.53Z" transform="translate(-56.11 -148.26)"/><rect class="cls-7" x="229.86" y="31.09" width="95.47" height="16.35"/><rect class="cls-7" x="229.86" y="54.28" width="95.47" height="16.35"/><rect class="cls-10" x="230.86" y="87.3" width="95.47" height="16.35"/><rect class="cls-2" x="229.86" y="86.3" width="95.47" height="16.35"/><rect class="cls-7" x="230.59" y="76.14" width="4.85" height="4.85"/></g><g id="Speech_bubble" data-name="Speech bubble"><path class="cls-2" d="M181.28,148.26H152.55a8.85,8.85,0,0,0-8.85,8.85v25a8.85,8.85,0,0,0,8.85,8.85h8.38l-7,13.89,13-13.89h14.39a8.84,8.84,0,0,0,8.84-8.85v-25A8.84,8.84,0,0,0,181.28,148.26Z" transform="translate(-56.11 -148.26)"/><path class="cls-11" d="M181.28,148.26H152.55a8.85,8.85,0,0,0-8.85,8.85v25a8.85,8.85,0,0,0,8.85,8.85h8.38l-7,13.89,13-13.89h14.39a8.84,8.84,0,0,0,8.84-8.85v-25A8.84,8.84,0,0,0,181.28,148.26Z" transform="translate(-56.11 -148.26)"/><g class="cls-12"><circle class="cls-2" cx="166.91" cy="169.5" r="14.26" transform="translate(-127.08 19.41) rotate(-45)"/></g><path class="cls-7" d="M165.42,175.87a1.31,1.31,0,0,1-1-.46l-5.6-6.59a1.31,1.31,0,1,1,2-1.7l4.6,5.42,7.58-8.95a1.31,1.31,0,1,1,2,1.7l-8.59,10.12A1.29,1.29,0,0,1,165.42,175.87Z" transform="translate(-56.11 -148.26)"/></g><g id="Character"><path class="cls-5" d="M205,417.12h58.2a1.15,1.15,0,0,0,1.15-1.15v-3.71a1.15,1.15,0,0,0-1.15-1.14H208V292.3h54.26a2.09,2.09,0,0,0,2.09-2.08V286.3H205a3,3,0,0,0-3,3V414.12A3,3,0,0,0,205,417.12Z" transform="translate(-56.11 -148.26)"/><g class="cls-13"><path class="cls-7" d="M202,289.3V414.11a3,3,0,0,0,3,3h58.2a1.14,1.14,0,0,0,1.14-1.14v-3.71a1.15,1.15,0,0,0-1.14-1.15H208V292.3h54.26a2.09,2.09,0,0,0,2.08-2.09V286.3H205A3,3,0,0,0,202,289.3Z" transform="translate(-56.11 -148.26)"/></g><path class="cls-10" d="M202,289.3v31.83q3,.76,6,1.47V292.3h54.26a2.09,2.09,0,0,0,2.08-2.09V286.3H205A3,3,0,0,0,202,289.3Z" transform="translate(-56.11 -148.26)"/><path class="cls-5" d="M96.75,400.37l23.86-2.08V367H129v31.33L153,400.37a4.12,4.12,0,0,1,3.72,4.1v3.18H93v-3.18A4.12,4.12,0,0,1,96.75,400.37Z" transform="translate(-56.11 -148.26)"/><path class="cls-9" d="M96.75,400.37l23.86-2.08V367H129v31.33L153,400.37a4.12,4.12,0,0,1,3.72,4.1v3.18H93v-3.18A4.12,4.12,0,0,1,96.75,400.37Z" transform="translate(-56.11 -148.26)"/><path class="cls-5" d="M148.94,411.6a5.49,5.49,0,1,0,5.49-5.49A5.48,5.48,0,0,0,148.94,411.6Z" transform="translate(-56.11 -148.26)"/><path class="cls-5" d="M100.75,411.6a5.49,5.49,0,1,1-5.48-5.49A5.48,5.48,0,0,1,100.75,411.6Z" transform="translate(-56.11 -148.26)"/><path class="cls-5" d="M122.88,342.66h3.85a3.71,3.71,0,0,1,3.71,3.71v27a0,0,0,0,1,0,0H119.17a0,0,0,0,1,0,0v-27A3.71,3.71,0,0,1,122.88,342.66Z" transform="translate(193.5 567.74) rotate(180)"/><path class="cls-3" d="M122.88,342.66h3.85a3.71,3.71,0,0,1,3.71,3.71v27a0,0,0,0,1,0,0H119.17a0,0,0,0,1,0,0v-27A3.71,3.71,0,0,1,122.88,342.66Z" transform="translate(193.5 567.74) rotate(180)"/><path class="cls-5" d="M100.06,280.66s2.58,51.83,13.74,60.75H101.86s-10.64-17.66-11.43-60.75Z" transform="translate(-56.11 -148.26)"/><path class="cls-9" d="M100.06,280.66s2.58,51.83,13.74,60.75H101.86s-10.64-17.66-11.43-60.75Z" transform="translate(-56.11 -148.26)"/><path class="cls-2" d="M43,188.85H95.9a4.49,4.49,0,0,1,4.49,4.49v4.1a0,0,0,0,1,0,0H38.48a0,0,0,0,1,0,0v-4.1A4.49,4.49,0,0,1,43,188.85Z"/><rect class="cls-5" x="36.13" y="193.15" width="66.62" height="4.29" rx="1.81"/><rect class="cls-8" x="36.13" y="193.15" width="66.62" height="4.29" rx="1.81"/><path class="cls-2" d="M88.33,292h19.13c5.6,0,9.64-5,9-11.25l-.81-8.28c-.62-6.21-5.65-11.25-11.25-11.25H85.3c-5.6,0-9.64,5-9,11.25l.81,8.28C77.69,287,82.73,292,88.33,292Z" transform="translate(-56.11 -148.26)"/><g id="_Group_" data-name="&lt;Group&gt;"><path class="cls-14" d="M151.46,247.29l.92,2.82c.32,1,.66,1.92,1,2.88.69,1.9,1.42,3.78,2.2,5.6a51,51,0,0,0,2.53,5.13,16.54,16.54,0,0,0,2.73,3.7,9,9,0,0,0,3.76,1.71,41,41,0,0,0,5.7,1c4,.51,8.26.7,12.41.87l.74,5.6A64.85,64.85,0,0,1,170,278.77a41.64,41.64,0,0,1-7.18-.23,25.36,25.36,0,0,1-3.92-.81,15.21,15.21,0,0,1-2.12-.81,12.26,12.26,0,0,1-2.18-1.27,23.28,23.28,0,0,1-5.68-6.06,47.55,47.55,0,0,1-3.61-6.26,68.93,68.93,0,0,1-2.73-6.37c-.39-1.08-.77-2.16-1.13-3.24s-.67-2.14-1-3.37Z" transform="translate(-56.11 -148.26)"/><path class="cls-5" d="M146.55,242c3.15,1.08,6,5.61,13.93,23.78,0,0,1.29,2.22,7.72,3.61l-.59,10.2s-9.18-.4-11.31-1.87-14.9-22.48-14.9-22.48Z" transform="translate(-56.11 -148.26)"/><path class="cls-3" d="M168.2,269.41l-.59,10.2s-7.36-.32-10.43-1.45a4,4,0,0,1-.88-.42c-1.23-.86-6-8.25-9.85-14.33-2.79-4.42-5-8.15-5-8.15L146.55,242c3.15,1.08,6,5.61,13.94,23.77C160.49,265.79,161.77,268,168.2,269.41Z" transform="translate(-56.11 -148.26)"/><path class="cls-15" d="M157.18,278.16a4,4,0,0,1-.88-.42c-1.23-.86-6-8.25-9.85-14.33A101.11,101.11,0,0,1,150,253.25S157.32,267.92,157.18,278.16Z" transform="translate(-56.11 -148.26)"/><path class="cls-16" d="M180.54,271.55l7.17-2.58-.88,9.6s-6.58.84-7.39-2.62Z" transform="translate(-56.11 -148.26)"/><polygon class="cls-16" points="137.54 122.65 136.44 130.56 130.72 130.31 131.6 120.7 137.54 122.65"/><polygon class="cls-5" points="112.14 120.7 115.8 121.81 114.46 131.73 110.8 132.36 112.14 120.7"/><path class="cls-2" d="M151.74,305.09s48.39,19.09,59.64,27.07S251,393.94,251,393.94l-11.73,9s-33.84-49.14-38-52.47-58-19.86-58-19.86Z" transform="translate(-56.11 -148.26)"/><path class="cls-17" d="M251,393.94l-11.73,9s-7.9-11.47-16.53-23.7c-9.23-13.09-19.3-27-21.44-28.77-3-2.44-32.65-11.94-48.36-16.86-5.78-1.82-9.67-3-9.67-3l8.46-25.55s48.38,19.09,59.64,27.07S251,393.94,251,393.94Z" transform="translate(-56.11 -148.26)"/><polygon class="cls-16" points="197.04 264.93 202.69 259.25 193.44 244.96 187.81 250.64 197.04 264.93"/><polygon class="cls-15" points="187.81 250.64 193.45 244.97 198.73 253.13 192.89 258.52 187.81 250.64"/><path class="cls-2" d="M259.78,406.89s0,0,.07,0,0,0,0,0a9.88,9.88,0,0,0,1.9-.94,2.13,2.13,0,0,0,1-1.16,1,1,0,0,0-.39-1,.7.7,0,0,0-.65-.2c-.55.13-1.09.91-1.5,1.66a3,3,0,0,0-.46-2,.7.7,0,0,0-.87-.1.88.88,0,0,0-.49.63c-.23,1.08,1.22,2.82,1.29,2.92l.1-.1h0l-.09.11s-.07.11-.07.12A.13.13,0,0,0,259.78,406.89Zm.05-.74c0,.06-.05.12-.07.17-.44-.62-1.09-1.71-.95-2.35a.54.54,0,0,1,.24-.37l.07,0c.24-.12.37-.05.45,0A3.76,3.76,0,0,1,259.83,406.15Zm.34.24c.44-1,1.17-2.3,1.72-2.42a.32.32,0,0,1,.32.1.68.68,0,0,1,.26.62C262.36,405.21,261.51,405.83,260.17,406.39Z" transform="translate(-56.11 -148.26)"/><path class="cls-5" d="M258.69,406.38l-7.46,5a.56.56,0,0,0-.19.78h0l3.6,6.15a1.41,1.41,0,0,0,1.95.4c2.57-1.79,3.71-2.77,7-5a75.85,75.85,0,0,0,8.57-6.13c2.46-2.29.13-4.66-1.11-3.91-3,1.77-8.08,2.53-10.94,2.32A2.17,2.17,0,0,0,258.69,406.38Z" transform="translate(-56.11 -148.26)"/><polygon class="cls-2" points="183.71 258.65 198.36 248.9 194.98 242.01 179.11 253.02 183.71 258.65"/><polygon class="cls-18" points="183.71 258.65 198.36 248.9 194.98 242.01 179.11 253.02 183.71 258.65"/><path class="cls-15" d="M222.76,379.28c-9.23-13.09-19.3-27-21.44-28.77-3-2.44-32.65-11.94-48.36-16.86l-1.83-19,5.74-1,.65,1.46s35.86,8.13,46,13.21C210.05,331.53,218.82,363.61,222.76,379.28Z" transform="translate(-56.11 -148.26)"/><path class="cls-2" d="M220.61,408.79l0,0a.09.09,0,0,0,.07,0,10,10,0,0,0,2.11-.25,2.13,2.13,0,0,0,1.35-.76,1,1,0,0,0,0-1.06.71.71,0,0,0-.55-.41c-.56-.07-1.33.5-2,1.07a2.9,2.9,0,0,0,.21-2,.7.7,0,0,0-.78-.39,1,1,0,0,0-.68.43c-.57.95.22,3.07.26,3.19l.12-.07h0l-.12.08s-.11.08-.1.09Zm.3-.69-.13.14a4.07,4.07,0,0,1-.12-2.54.55.55,0,0,1,.35-.26l.09,0c.26,0,.36.08.4.18A3.73,3.73,0,0,1,220.91,408.1Zm.23.34c.75-.8,1.87-1.78,2.43-1.71a.33.33,0,0,1,.27.2.7.7,0,0,1,0,.67C223.6,408.05,222.6,408.36,221.14,408.44Z" transform="translate(-56.11 -148.26)"/><polygon class="cls-16" points="156.16 264.27 163.37 260.78 159.08 243.59 151.88 247.09 156.16 264.27"/><polygon class="cls-15" points="151.88 247.09 159.08 243.6 161.53 253.43 154.23 256.56 151.88 247.09"/><path class="cls-5" d="M219.75,407.94l-8.7,2.25a.56.56,0,0,0-.44.67h0l1.36,7a1.42,1.42,0,0,0,1.71,1c3-.84,4.42-1.39,8.24-2.41A74.22,74.22,0,0,0,232,413.54c3.08-1.34,1.67-4.35.25-4.05-3.38.69-8.47-.3-11.09-1.45A2.26,2.26,0,0,0,219.75,407.94Z" transform="translate(-56.11 -148.26)"/><path class="cls-2" d="M218.7,395.12S206.5,333.91,204,330.27c-4.06-6-52.88-15.67-52.88-15.67l5.73-1L150.23,296l-43.47,1.71s.91,28.72,5.33,36.42,69.81,11.24,74.06,13,17.22,49.77,17.22,49.77Z" transform="translate(-56.11 -148.26)"/><path class="cls-17" d="M218.7,395.12S206.5,333.91,204,330.27c-4.06-6-52.88-15.67-52.88-15.67l5.73-1L150.23,296l-43.47,1.71s.91,28.72,5.33,36.42,69.81,11.24,74.06,13,17.22,49.77,17.22,49.77Z" transform="translate(-56.11 -148.26)"/><polygon class="cls-2" points="147.52 254.06 164.57 249.72 163.67 242.1 145.05 247.23 147.52 254.06"/><polygon class="cls-18" points="147.52 254.06 164.57 249.72 163.67 242.1 145.05 247.23 147.52 254.06"/><polygon class="cls-5" points="64.41 150.12 51.81 149.9 51.54 153.72 64.95 154.04 64.41 150.12"/><polygon class="cls-5" points="66.35 150.05 66.9 154.01 95.02 153.61 94.11 150 66.35 150.05"/><path class="cls-7" d="M136,299l.36,2.61a1.35,1.35,0,0,0,1.35,1.13l4.5-.14a1,1,0,0,0,1-1.19l-.37-2.62a1.34,1.34,0,0,0-1.35-1.12l-4.49.14A1,1,0,0,0,136,299Z" transform="translate(-56.11 -148.26)"/><path class="cls-5" d="M107.86,297.61h41.3a2,2,0,0,0,2-1.78c5.1-40-4.64-53.81-4.64-53.81a75.23,75.23,0,0,0-11.32-2.31,147.3,147.3,0,0,0-16.81-.36A79.59,79.59,0,0,0,107,240.48c-2,.87-4.07,9.78-2,37.54.54,7.27.62,13.55.57,17.23A2.33,2.33,0,0,0,107.86,297.61Z" transform="translate(-56.11 -148.26)"/><polygon class="cls-5" points="84.65 107.91 92.6 107.91 93.21 117.41 88.94 120.17 84.65 118.06 84.65 107.91"/><path class="cls-3" d="M151.19,295.83a2,2,0,0,1-2,1.78h-41.3a2.33,2.33,0,0,1-2.34-2.36c0-3.68,0-10-.56-17.23q-.43-6-.63-10.84a145.73,145.73,0,0,1,.1-17.72c.5-6,1.53-8.53,2.57-9a79.73,79.73,0,0,1,11.43-1.13,147.17,147.17,0,0,1,16.8.36A75.23,75.23,0,0,1,146.55,242S156.29,255.87,151.19,295.83Z" transform="translate(-56.11 -148.26)"/><path class="cls-16" d="M118.8,238.94l13.34,4.55.54-3.82c-1.3-2.28-1.63-3.72-.53-6.37l-8.9-10.23C123.48,228.31,122.53,235.47,118.8,238.94Z" transform="translate(-56.11 -148.26)"/><path class="cls-7" d="M127.24,245.47l2.62,1.09,2.28,1.43s3.05,17.46,2.2,32.2l2.56,2.1,2.7-2.17s-3.36-27.07-4.57-32.34l.53-1.27,1.23-2.62-2.27-1.19-3.61.79h-2.52Z" transform="translate(-56.11 -148.26)"/><path class="cls-15" d="M126.87,227.24l5.27,6.06a18.21,18.21,0,0,0-.95,2.87c-2.23-.67-5-3.64-4.87-6.06A8.08,8.08,0,0,1,126.87,227.24Z" transform="translate(-56.11 -148.26)"/><path class="cls-5" d="M119.63,236.52a63.2,63.2,0,0,0,12,6.25,11.82,11.82,0,0,0,0-5.67l5.89,2.94s.49,4.57-.86,7l-4.33-3.17-4.86,4s-9.2-3.55-10.64-8.37Z" transform="translate(-56.11 -148.26)"/><path class="cls-15" d="M149.64,272,136,283c-19.58,4.36-28.19-7.85-31.65-15.85a145.73,145.73,0,0,1,.1-17.72c4.7-.22,10.55-.22,12.13,1,2.75,2.11,12.33,16.9,13.76,18S149.64,272,149.64,272Z" transform="translate(-56.11 -148.26)"/><path class="cls-16" d="M157.4,271.48l7.17-2.59-.88,9.6s-6.58.84-7.39-2.62Z" transform="translate(-56.11 -148.26)"/><polygon class="cls-16" points="114.39 122.57 113.3 130.48 107.58 130.23 108.46 120.63 114.39 122.57"/><path class="cls-14" d="M115.69,252.11l1.62,3.08c.56,1.05,1.14,2.09,1.73,3.11,1.17,2.06,2.39,4.07,3.65,6a39,39,0,0,0,4,5.13,12.94,12.94,0,0,0,1.87,1.7c.17.14.2.13.25.18a2.23,2.23,0,0,0,.34.16c.15.06.35.11.52.17l.64.15a33.91,33.91,0,0,0,6.52.58c2.35,0,4.76,0,7.2-.15,4.86-.24,9.85-.63,14.74-1.07l1.19,5.52A121.18,121.18,0,0,1,145,280.48c-2.54.5-5.13.86-7.79,1.14a42,42,0,0,1-8.49.05c-.41-.06-.8-.11-1.21-.19s-.85-.17-1.3-.29a15,15,0,0,1-1.43-.48,13,13,0,0,1-1.43-.67,22.3,22.3,0,0,1-4-2.9,43.49,43.49,0,0,1-5.71-6.38,72.68,72.68,0,0,1-4.45-6.7c-.66-1.14-1.3-2.3-1.92-3.46s-1.21-2.3-1.8-3.62Z" transform="translate(-56.11 -148.26)"/><path class="cls-5" d="M107,240.48c-12.9,4.65,3.83,36.79,10.87,40.39S136.79,283,136.79,283l.84-11.17s-6.16-.75-8-1.19c-2.93-.7-8.85-13.64-12.84-20.67A22.48,22.48,0,0,0,107,240.48Z" transform="translate(-56.11 -148.26)"/><path class="cls-3" d="M107,240.48c-12.9,4.65,3.83,36.79,10.87,40.39S136.79,283,136.79,283l.84-11.17s-6.16-.75-8-1.19c-2.93-.7-8.85-13.64-12.84-20.67A22.48,22.48,0,0,0,107,240.48Z" transform="translate(-56.11 -148.26)"/><polygon class="cls-5" points="79.86 122.73 78.82 135.7 82.52 135.01 83.49 123.42 79.86 122.73"/><path class="cls-5" d="M146.18,212.53c.51,3-.78,8.82-4.53,6.36S145.29,207.39,146.18,212.53Z" transform="translate(-56.11 -148.26)"/><path class="cls-16" d="M125,213.6c-1.44,7.32-2.66,11.53,0,16.15,4,6.94,13.83,5.88,17.44-.87,3.25-6.09,5.06-17-1.27-21.67A10.29,10.29,0,0,0,125,213.6Z" transform="translate(-56.11 -148.26)"/><path class="cls-5" d="M121.48,205.53l8.29-.38.22,4.76-.49-.27s-.52,7-4.49,9.33C119.64,214.87,118.06,208.16,121.48,205.53Z" transform="translate(-56.11 -148.26)"/><path class="cls-16" d="M120.62,218.88a7,7,0,0,0,2.35,4.85c1.87,1.63,3.89.22,4.28-2.1.35-2.09-.2-5.46-2.51-6.2A3.23,3.23,0,0,0,120.62,218.88Z" transform="translate(-56.11 -148.26)"/><path class="cls-5" d="M135.42,218.37c-.16.59,0,1.14.42,1.24s.82-.3,1-.89,0-1.14-.42-1.23S135.57,217.79,135.42,218.37Z" transform="translate(-56.11 -148.26)"/><path class="cls-5" d="M142.07,220.05c-.15.58,0,1.14.42,1.23s.83-.3,1-.88,0-1.14-.42-1.24S142.23,219.46,142.07,220.05Z" transform="translate(-56.11 -148.26)"/><path class="cls-19" d="M139.88,219.81a20.68,20.68,0,0,0,1.6,5.55,3.61,3.61,0,0,1-2.93-.23Z" transform="translate(-56.11 -148.26)"/><path class="cls-5" d="M134.81,226.58a5.07,5.07,0,0,0,.75.25.19.19,0,0,0,.22-.13.18.18,0,0,0-.13-.22,4.72,4.72,0,0,1-3.32-2.77.19.19,0,0,0-.23-.11.17.17,0,0,0-.11.23A4.9,4.9,0,0,0,134.81,226.58Z" transform="translate(-56.11 -148.26)"/><path class="cls-5" d="M133.93,215.72a.35.35,0,0,0,.35-.06,2.89,2.89,0,0,1,2.52-.59.35.35,0,0,0,.45-.23.34.34,0,0,0-.22-.44,3.54,3.54,0,0,0-3.19.71.35.35,0,0,0-.06.5A.42.42,0,0,0,133.93,215.72Z" transform="translate(-56.11 -148.26)"/><path class="cls-5" d="M145.54,218.49a.37.37,0,0,0,.49-.41,3.55,3.55,0,0,0-2-2.56.37.37,0,0,0-.47.2.36.36,0,0,0,.2.46,2.74,2.74,0,0,1,1.54,2A.38.38,0,0,0,145.54,218.49Z" transform="translate(-56.11 -148.26)"/><path class="cls-5" d="M126.94,211.42a3.56,3.56,0,0,0,.51.36,3.35,3.35,0,0,0,3.2.13c2.06-1,2.71-6.88,8.57-3.89a3.43,3.43,0,0,1,3.52,1.24c1.51,1.85.47,8.6,3.69,7.67s2.66-1.93,2.66-1.93-.9.57-1.43.12a3,3,0,0,0,.87-3.37s-.78.93-1.3.75a13.65,13.65,0,0,0-.89-8.11c-1.87-4.66-13.31-3.62-13.31-3.62s-1.44-2.41-6.61-.73-7.53,7.91-6.71,10.62" transform="translate(-56.11 -148.26)"/></g><polygon class="cls-5" points="139.09 129.47 138.35 126.69 108.02 126.69 94.06 128.08 93.53 129.47 139.09 129.47"/><polygon class="cls-20" points="139.09 129.47 138.35 126.69 108.02 126.69 94.06 128.08 93.53 129.47 139.09 129.47"/><polygon class="cls-15" points="108.02 126.69 108.02 129.47 139.09 129.47 138.35 126.69 108.02 126.69"/><path class="cls-5" d="M174.39,261.59a2.39,2.39,0,0,0,2.41,2.67h46.46a3,3,0,0,0,2.91-2.67l2.76-29.74a2.69,2.69,0,0,0-.06-.86,2.37,2.37,0,0,0-2.35-1.81H180.06a3,3,0,0,0-2.91,2.67Z" transform="translate(-56.11 -148.26)"/><path class="cls-20" d="M174.39,261.59a2.39,2.39,0,0,0,2.41,2.67h46.46a3,3,0,0,0,2.91-2.67l2.76-29.74a2.69,2.69,0,0,0-.06-.86,2.37,2.37,0,0,0-2.35-1.81H180.06a3,3,0,0,0-2.91,2.67Z" transform="translate(-56.11 -148.26)"/><path class="cls-21" d="M177,264.26h46.29a3,3,0,0,0,2.91-2.67l2.76-29.74a2.69,2.69,0,0,0-.06-.86h-46.3a3,3,0,0,0-2.9,2.67l-2.76,29.74A2.43,2.43,0,0,0,177,264.26Z" transform="translate(-56.11 -148.26)"/><polygon class="cls-5" points="152.77 97.76 143.16 97.76 145.72 125.28 130.53 127.56 130.53 129.47 162.53 129.47 162.53 127.56 155.98 125.28 152.77 97.76"/><polygon class="cls-20" points="152.77 97.76 143.16 97.76 145.72 125.28 130.53 127.56 130.53 129.47 162.53 129.47 162.53 127.56 155.98 125.28 152.77 97.76"/><polygon class="cls-3" points="143.16 97.76 150.28 129.04 155.98 128.87 152.77 97.76 143.16 97.76"/><path class="cls-5" d="M119.94,417.12h58.2a1.14,1.14,0,0,0,1.14-1.15v-3.71a1.14,1.14,0,0,0-1.14-1.14h-55.2V292.3H177.2a2.08,2.08,0,0,0,2.08-2.08V286.3H119.94a3,3,0,0,0-3,3V414.12A3,3,0,0,0,119.94,417.12Z" transform="translate(-56.11 -148.26)"/><g class="cls-22"><path class="cls-7" d="M119.94,417.12h58.2a1.14,1.14,0,0,0,1.14-1.15v-3.71a1.14,1.14,0,0,0-1.14-1.14h-55.2V292.3H177.2a2.08,2.08,0,0,0,2.08-2.08V286.3H119.94a3,3,0,0,0-3,3V414.12A3,3,0,0,0,119.94,417.12Z" transform="translate(-56.11 -148.26)"/></g><path class="cls-2" d="M112.49,280.62H265.91a1.94,1.94,0,0,1,1.94,1.94v4.72a0,0,0,0,1,0,0H110.55a0,0,0,0,1,0,0v-4.73A1.94,1.94,0,0,1,112.49,280.62Z" transform="translate(322.28 419.65) rotate(180)"/><rect class="cls-15" x="110.55" y="280.62" width="157.3" height="3.33" transform="translate(322.28 416.32) rotate(180)"/><path class="cls-2" d="M107.25,281.49h163.9a1.88,1.88,0,0,0,1.88-1.87h0a1.88,1.88,0,0,0-1.88-1.88H107.25a1.88,1.88,0,0,0-1.88,1.88h0A1.88,1.88,0,0,0,107.25,281.49Z" transform="translate(-56.11 -148.26)"/></g></svg>