<svg id="Layer_1" data-name="Layer 1" xmlns="http://www.w3.org/2000/svg" viewBox="0 0 484.99 149.64"><defs><style>.cls-1{fill:#136567;}.cls-2,.cls-3,.cls-4,.cls-5,.cls-6{fill:none;}.cls-2,.cls-5{stroke:#136567;}.cls-2,.cls-3{stroke-linejoin:round;}.cls-2,.cls-3,.cls-4{stroke-width:6px;}.cls-3,.cls-4,.cls-6{stroke:#7a7877;}.cls-4,.cls-5,.cls-6{stroke-miterlimit:10;}.cls-5{font-size:73px;stroke-width:3px;}.cls-5,.cls-6{font-family:SimplifiedArabicFixed, Simplified Arabic Fixed;}.cls-6{font-size:44px;stroke-width:2px;}</style></defs><circle class="cls-1" cx="59.44" cy="76.24" r="6.89"/><circle class="cls-1" cx="82.09" cy="75.23" r="6.89"/><circle class="cls-1" cx="103.8" cy="75.23" r="6.89"/><path class="cls-2" d="M85.18,396.05s5.61,20.25,16.08,29c0,0,4.07,2.41-6.69,22.62,0,0,7.35,4,23.83-10.53,0,0,30.34,14.12,57.3,2.65" transform="translate(-68.48 -301.56)"/><path class="cls-3" d="M86.12,351.94s-13.52-1.38-14.58,20.82C70.39,397,85.27,396.64,85.27,396.64l.85-44.7s14.91-47.5,63.35-47.35c0,0,47.22-3,63,47.35V397s-3.21,15.39-23,33.64" transform="translate(-68.48 -301.56)"/><path class="cls-4" d="M86.12,351.94s13.44-2,13.69,10.16c.2,9.5,0,22.09-.14,27.08A5.67,5.67,0,0,1,96.85,394c-2.07,1.18-5.6,2.37-11.58,2.65" transform="translate(-68.48 -301.56)"/><path class="cls-4" d="M212.48,397s15.87-1.86,15.87-21.32c0-25.15-15.87-23.75-15.87-23.75s-15.12-2.11-14.92,11.85,0,27.15,0,27.15S197.15,399.57,212.48,397Z" transform="translate(-68.48 -301.56)"/><circle class="cls-4" cx="113.07" cy="133.16" r="8.84"/><text class="cls-5" transform="translate(176.84 86.81)">ManTech</text><text class="cls-6" transform="translate(176.28 123.52)">Help Desk</text></svg>