<svg xmlns="http://www.w3.org/2000/svg" viewBox="0 0 229.28 332.95"><defs><style>.cls-1{fill:#b57c76;}.cls-2{isolation:isolate;opacity:0.2;}.cls-3{fill:#263238;}.cls-4{fill:#ab6d6c;}</style></defs><g id="Layer_2" data-name="Layer 2"><g id="Character"><path class="cls-1" d="M0,298.56,100.87,333,105,304c-9.85-17.24-12.33-28.11-4-48.14L33.61,178.55C35.42,218.2,28.22,272.34,0,298.56Z"/><path class="cls-2" d="M61,210.1l39.83,45.8a133.6,133.6,0,0,0-7.21,21.72c-16.85-5.05-37.66-27.51-36.8-45.8A59.82,59.82,0,0,1,61,210.1Z"/><path class="cls-3" d="M206.94,98.92c3.89,22.62-5.9,66.67-34.24,48.07S200.27,60.05,206.94,98.92Z"/><path class="cls-1" d="M46.67,107c-10.9,55.3-20.1,87.14.2,122,30.53,52.48,104.55,44.5,131.82-6.58,24.55-46,38.25-128.68-9.6-163.8C122,24.07,57.57,51.73,46.67,107Z"/><path class="cls-3" d="M20.24,46,82.9,43.11l1.65,36c-1.18-.68-2.52-1.33-3.63-2,0,0-4,52.52-33.94,70.48C6.33,116.56-5.56,65.91,20.24,46Z"/><path class="cls-1" d="M13.79,146.89A53,53,0,0,0,31.53,183.6c14.13,12.31,29.4,1.61,32.35-15.94,2.65-15.8-1.5-41.24-19-46.81C27.66,115.37,13,129.57,13.79,146.89Z"/><path class="cls-3" d="M125.62,143.08c-1.16,4.43.25,8.62,3.16,9.35s6.21-2.27,7.38-6.7-.26-8.62-3.17-9.36S126.78,138.65,125.62,143.08Z"/><path class="cls-3" d="M175.94,155.72c-1.16,4.43.25,8.62,3.16,9.35s6.21-2.27,7.37-6.7-.25-8.62-3.16-9.35S177.1,151.29,175.94,155.72Z"/><path class="cls-4" d="M159.36,153.91s3.93,27.23,12,42c-9.59,5-22.09-1.75-22.09-1.75Z"/><path class="cls-3" d="M121,205.14a44.85,44.85,0,0,0,5.7,1.83,1.34,1.34,0,0,0,.68-2.6c-19.55-4.93-25.1-20.79-25.16-21a1.35,1.35,0,0,0-2.56.87C99.89,184.93,104.69,198.61,121,205.14Z"/><path class="cls-3" d="M114.34,123a2.74,2.74,0,0,0,2.7-.4c9.46-7.49,18.93-4.52,19-4.49a2.74,2.74,0,0,0,3.43-1.71,2.67,2.67,0,0,0-1.7-3.39c-.5-.17-12.36-3.9-24.1,5.4a2.69,2.69,0,0,0-.45,3.78A2.72,2.72,0,0,0,114.34,123Z"/><path class="cls-3" d="M202.13,143.93a2.63,2.63,0,0,0,1.55.13,2.69,2.69,0,0,0,2.12-3.17,26.54,26.54,0,0,0-14.94-19.38,2.73,2.73,0,0,0-3.52,1.52,2.68,2.68,0,0,0,1.49,3.48c.49.17,9.32,3.78,11.67,15.47A2.66,2.66,0,0,0,202.13,143.93Z"/><path class="cls-3" d="M61.57,90.55a23.59,23.59,0,0,0,3.79,2.65,25,25,0,0,0,24.2,1c15.61-7.67,20.5-52,64.82-29.42,0,0,15.18-4.58,26.6,9.4s3.54,65,27.9,58S229,117.58,229,117.58s-6.82,4.32-10.87.9c0,0,12.76-10.61,6.63-25.44,0,0-5.92,7-9.88,5.61,0,0,7.38-26.07-6.71-61.29S107.59,10,107.59,10,96.68-8.2,57.62,4.5.72,64.27,6.92,84.8"/></g></g></svg>